<?xml version="1.0" encoding="UTF-8" standalone="no"?>
<!-- Created with Inkscape (http://www.inkscape.org/) -->

<svg
   width="1000"
   height="1000"
   viewBox="0 0 264.58333 264.58333"
   version="1.1"
   id="svg1"
   xml:space="preserve"
   inkscape:version="1.3.2 (091e20e, 2023-11-25, custom)"
   sodipodi:docname="lamp.svg"
   xmlns:inkscape="http://www.inkscape.org/namespaces/inkscape"
   xmlns:sodipodi="http://sodipodi.sourceforge.net/DTD/sodipodi-0.dtd"
   xmlns="http://www.w3.org/2000/svg"
   xmlns:svg="http://www.w3.org/2000/svg"><sodipodi:namedview
     id="namedview1"
     pagecolor="#ffffff"
     bordercolor="#000000"
     borderopacity="0.25"
     inkscape:showpageshadow="2"
     inkscape:pageopacity="0.0"
     inkscape:pagecheckerboard="0"
     inkscape:deskcolor="#d1d1d1"
     inkscape:document-units="mm"
     inkscape:zoom="0.51213161"
     inkscape:cx="288.0119"
     inkscape:cy="588.71586"
     inkscape:window-width="1920"
     inkscape:window-height="1009"
     inkscape:window-x="-8"
     inkscape:window-y="-8"
     inkscape:window-maximized="1"
     inkscape:current-layer="layer1" /><defs
     id="defs1" /><g
     inkscape:label="Camada 1"
     inkscape:groupmode="layer"
     id="layer1"><path
       style="fill:#ffffff;fill-opacity:1"
       d="m 110.33788,264.17129 c -3.68916,-0.93965 -7.53867,-6.02796 -7.51454,-9.93278 0.0252,-4.07043 3.61585,-8.70965 7.5968,-9.81517 2.63509,-0.73177 41.05975,-0.73177 43.69484,0 2.21486,0.61507 5.26305,3.08532 6.27357,5.08409 2.64767,5.237 0.33386,11.59701 -5.12054,14.07489 -1.90065,0.86344 -3.79759,0.93705 -23.00045,0.89246 -11.51092,-0.0267 -21.37928,-0.1633 -21.92968,-0.30349 z m 42.56205,-9.37235 c 0.35847,-0.66981 0.32474,-1.22149 -0.11101,-1.81572 -0.56639,-0.77238 -2.53767,-0.84061 -20.72357,-0.71734 -18.102,0.1227 -20.15156,0.22173 -20.64061,0.99725 -0.39395,0.62473 -0.35655,1.08564 0.1363,1.67949 0.59843,0.72107 3.06781,0.81846 20.75162,0.81846 19.04704,0 20.09865,-0.0491 20.58727,-0.96214 z m -50.95477,-15.41127 c -1.81347,-0.36279 -5.720601,-4.1446 -6.395891,-6.19075 -0.87903,-2.6635 -0.68836,-6.02467 0.4706,-8.29546 1.14251,-2.23856 2.16992,-3.24 4.725071,-4.60561 1.70684,-0.91223 3.48394,-0.96666 31.56315,-0.96666 h 29.75447 l 2.50318,1.5503 c 6.44437,3.99119 6.61593,12.61912 0.33866,17.03173 l -2.23599,1.57178 -29.79902,0.0649 c -16.38946,0.0357 -30.30536,-0.0364 -30.92423,-0.16022 z m 58.44915,-8.72657 c 0.99861,-0.99861 1.03693,-1.97535 0.10775,-2.7465 -0.50937,-0.42274 -8.48327,-0.54753 -28.80962,-0.45085 l -28.1053,0.13367 -0.17827,1.26296 c -0.36927,2.61617 -0.4069,2.61278 28.92055,2.61278 24.08628,0 27.34718,-0.0944 28.06489,-0.81206 z M 98.317889,213.25721 c -0.91411,-1.00561 -1.10038,-2.10538 -1.37858,-8.13904 -0.48256,-10.46603 -2.65401,-18.87624 -6.39064,-24.75159 -0.97561,-1.53401 -3.93427,-5.04677 -6.5748,-7.80613 -12.784006,-13.35933 -19.370256,-29.50651 -19.391336,-47.54075 -0.041,-35.078908 27.064906,-64.600855 62.103007,-67.638476 20.14745,-1.746679 40.00293,5.625857 54.15787,20.109355 16.77496,17.16433 23.28024,40.831651 17.53824,63.807201 -3.06467,12.26273 -8.9984,22.39976 -19.66178,33.58968 -1.89592,1.98954 -4.16207,4.7544 -5.03588,6.14412 -3.23111,5.13881 -5.75716,15.67033 -5.76257,24.02509 -0.003,5.18936 -0.68064,8.10605 -2.05281,8.84042 -0.6294,0.33684 -12.63067,0.52284 -33.73538,0.52284 H 99.374809 Z M 159.73725,201.4402 c 1.15212,-15.10926 5.68277,-25.51375 15.18368,-34.86885 10.81961,-10.65357 16.772,-25.55324 16.77382,-41.98724 0.004,-40.181938 -39.09999,-68.753782 -77.51609,-56.637487 -14.582401,4.599237 -27.670951,15.518215 -34.750141,28.98992 -8.248286,15.696537 -8.996266,35.055257 -1.984026,51.349817 2.785556,6.4729 6.878236,12.38426 13.390366,19.34068 4.76451,5.08957 6.18602,6.99778 8.08421,10.85205 2.803761,5.69304 4.734591,12.23301 5.475711,18.54696 0.30557,2.60324 0.67036,5.72353 0.81066,6.934 l 0.25508,2.20084 26.96859,-0.13379 26.96858,-0.13378 z m 18.53548,-71.23971 c -1.1785,-1.1785 -1.39202,-2.02136 -1.78647,-7.05188 -0.15869,-2.02387 -0.88476,-5.74458 -1.61348,-8.26823 -5.22131,-18.082057 -20.77882,-30.590949 -39.87176,-32.058549 -3.48964,-0.268235 -4.54031,-0.55444 -5.58308,-1.520844 -2.33623,-2.165145 -1.15092,-5.902458 2.13344,-6.72678 4.10109,-1.029307 16.53723,1.698468 23.7579,5.211123 17.15638,8.346087 28.38182,24.8989 29.50225,43.50343 0.31024,5.15159 0.29187,5.2694 -1.02748,6.58874 -1.63406,1.63407 -4.05818,1.77613 -5.51132,0.32299 z M 36.822473,77.808987 c -6.87743,-3.762147 -12.98171,-7.27221 -13.56507,-7.800141 -1.20969,-1.09476 -1.3922,-3.678984 -0.35614,-5.042678 1.15679,-1.522589 3.26874,-2.03966 5.13381,-1.256914 3.03855,1.275241 24.89681,13.311822 25.77272,14.192142 1.46395,1.471312 1.42116,4.267593 -0.0884,5.777163 -1.95662,1.956626 -3.69243,1.353649 -16.89691,-5.869572 z m 173.947167,5.936152 c -1.70402,-1.379828 -1.6545,-4.455406 0.096,-5.961101 0.70955,-0.610337 6.86034,-4.10895 13.66841,-7.774695 12.98948,-6.994072 14.70908,-7.575283 16.80383,-5.679567 1.42834,1.292634 1.34137,4.385683 -0.16221,5.768743 -2.06763,1.901897 -26.21321,14.613568 -27.75819,14.613568 -0.79953,0 -1.99105,-0.435127 -2.64782,-0.966948 z M 180.80366,50.645392 c -2.52785,-2.527852 -2.67543,-2.190858 7.88832,-18.013575 8.21342,-12.302308 9.04336,-13.135574 11.90324,-11.95097 1.68582,0.698289 2.46906,1.894627 2.46906,3.771309 0,1.526391 -15.78451,25.568189 -17.63985,26.867723 -1.72614,1.209037 -2.91006,1.036222 -4.62077,-0.674487 z M 79.875389,49.959685 c -2.00713,-1.8089 -16.405796,-24.696036 -16.707906,-26.557742 -0.57606,-3.549862 4.4624,-5.835546 6.9574,-3.156208 0.5955,0.639496 4.51236,6.511231 8.704126,13.0483 8.43382,13.152541 8.87474,14.327786 6.22915,16.603428 -1.78745,1.537502 -3.52271,1.558334 -5.18277,0.06222 z m 49.620441,-14.66906 -1.36238,-1.362379 V 18.334843 c 0,-14.7896749 0.0524,-15.6496153 1.01604,-16.6840014 0.55883,-0.5998291 1.50615,-1.24614939 2.10516,-1.43626709 1.52635,-0.4844445 3.86977,0.6108653 4.56323,2.13284259 0.82396,1.8083939 0.80841,30.3344499 -0.0174,31.8849289 -1.45612,2.733979 -4.17294,3.190014 -6.30467,1.058279 z"
       id="path1" /></g></svg>
