<?xml version="1.0" encoding="UTF-8" standalone="no"?>
<!-- Created with Inkscape (http://www.inkscape.org/) -->

<svg
   width="1000"
   height="1000"
   viewBox="0 0 264.58333 264.58333"
   version="1.1"
   id="svg1"
   xml:space="preserve"
   inkscape:version="1.3.2 (091e20e, 2023-11-25, custom)"
   sodipodi:docname="livro.svg"
   xmlns:inkscape="http://www.inkscape.org/namespaces/inkscape"
   xmlns:sodipodi="http://sodipodi.sourceforge.net/DTD/sodipodi-0.dtd"
   xmlns="http://www.w3.org/2000/svg"
   xmlns:svg="http://www.w3.org/2000/svg"><sodipodi:namedview
     id="namedview1"
     pagecolor="#ffffff"
     bordercolor="#000000"
     borderopacity="0.25"
     inkscape:showpageshadow="2"
     inkscape:pageopacity="0.0"
     inkscape:pagecheckerboard="0"
     inkscape:deskcolor="#d1d1d1"
     inkscape:document-units="mm"
     inkscape:zoom="0.51213161"
     inkscape:cx="288.0119"
     inkscape:cy="588.71586"
     inkscape:window-width="1920"
     inkscape:window-height="1009"
     inkscape:window-x="-8"
     inkscape:window-y="-8"
     inkscape:window-maximized="1"
     inkscape:current-layer="layer1" /><defs
     id="defs1" /><g
     inkscape:label="Camada 1"
     inkscape:groupmode="layer"
     id="layer1"><path
       style="fill:#ffffff;stroke-width:2.56492;fill-opacity:1"
       d="M 126.57236,232.70831 C 98.895665,221.2158 57.517345,213.42544 18.239689,212.31238 10.961344,212.10616 4.3247915,211.7997 3.4917598,211.6315 -0.23456823,210.87895 -0.11671059,213.54463 0.07724797,134.40788 0.25037945,63.808501 0.29654785,61.46466 1.5487116,60.081327 2.7780734,58.723001 3.4855014,58.652928 15.969665,58.652928 h 13.128138 v -9.764975 c 0,-12.290308 0.21263,-12.667683 7.54689,-13.401915 23.081245,-2.310651 59.97228,2.647988 88.483977,11.893389 5.839,1.893391 7.628,2.225034 9.06183,1.679888 11.00613,-4.184524 38.62155,-10.437981 55.40392,-12.546133 10.09931,-1.26863 37.14876,-1.742215 41.90387,-0.733667 3.94484,0.8367 4.58247,2.739966 4.58247,13.678182 v 9.195231 h 12.86757 c 12.36323,0 12.92184,0.05822 14.25128,1.485237 1.37493,1.475798 1.38372,1.953744 1.38372,75.209935 v 73.72469 l -1.57067,1.47557 c -1.41455,1.3289 -2.30819,1.47579 -8.99189,1.47795 -36.72729,0.0129 -80.59095,7.51245 -111.36811,19.04359 -4.91609,1.84189 -9.64956,3.33597 -10.51883,3.3202 -0.86925,-0.0154 -3.37191,-0.77257 -5.56147,-1.68179 z m 12.14011,-11.23767 c 27.09148,-10.45918 67.27055,-17.93485 104.19547,-19.38646 l 11.4959,-0.45194 V 135.23232 68.832417 h -9.15083 -9.15083 l -0.18032,60.797733 -0.18031,60.79769 -1.46933,1.18966 c -1.23952,1.0036 -3.52137,1.25706 -14.5906,1.62066 -29.92817,0.98313 -56.02294,5.80644 -79.99454,14.7861 l -7.15361,2.67971 -7.19773,-2.7036 c -24.29181,-9.1244 -57.577784,-14.97817 -85.169783,-14.97817 -7.309304,0 -7.82857,-0.0921 -9.402322,-1.66573 l -1.66573,-1.66573 V 129.26157 68.832417 h -9.161528 -9.161553 v 66.400773 66.40077 l 11.269731,0.46192 c 37.152755,1.52278 76.259334,8.74098 103.079855,19.02622 3.35924,1.2882 6.57274,2.36387 7.14113,2.39039 0.56838,0.0265 3.46955,-0.89233 6.44703,-2.04185 z m 26.48832,-31.77485 c 16.94387,-3.74829 37.73647,-6.38311 55.44467,-7.02599 l 4.58437,-0.16646 0.0154,-68.12785 c 0.007,-37.470323 -0.17467,-68.314171 -0.40615,-68.541884 -0.71946,-0.708069 -23.33328,-0.316458 -30.83274,0.533938 -16.11082,1.826858 -36.11454,6.045725 -51.74575,10.913387 l -4.58077,1.426476 v 69.452483 69.45247 l 9.02902,-2.91154 c 4.96595,-1.60135 13.2877,-3.85365 18.49275,-5.00509 z M 148.60363,176.8015 c -1.90265,-1.90266 -1.90185,-5.6759 10e-4,-7.44922 1.79597,-1.67323 12.96408,-6.3349 19.63544,-8.19605 10.23458,-2.8552 19.69913,-4.19904 32.3179,-4.5887 l 12.3214,-0.38048 1.76022,1.76022 c 2.09858,2.09859 2.24696,4.41329 0.43088,6.72205 -1.30439,1.65826 -1.55603,1.69724 -13.40299,2.0769 -17.3763,0.55684 -30.00133,3.08964 -41.9335,8.41257 -7.0821,3.15936 -9.28867,3.485 -11.13095,1.64271 z m -0.43672,-30.21761 c -1.71152,-2.6121 -1.04154,-5.84794 1.57454,-7.6046 9.27536,-6.22826 30.86429,-11.46533 50.48855,-12.2476 11.68289,-0.46571 14.06867,-0.0129 15.40375,2.91615 1.07337,2.35577 0.96888,3.21455 -0.63987,5.25974 -1.35294,1.72 -1.66963,1.78876 -8.31323,1.80561 -18.31428,0.0465 -37.63799,3.9135 -49.46838,9.89958 -4.26468,2.15792 -7.61955,2.1472 -9.04536,-0.0289 z m 2.40614,-28.0141 c -3.14641,-1.15691 -4.33473,-4.63477 -2.65563,-7.77222 1.55164,-2.89925 17.63455,-8.85161 30.75958,-11.384232 9.55833,-1.8444 26.71735,-3.11267 31.54371,-2.33151 4.53567,0.73413 6.59116,2.942552 5.85564,6.291322 -0.64207,2.92346 -3.59997,4.39344 -7.99141,3.97146 -4.70446,-0.45204 -19.12454,0.57213 -26.1467,1.85704 -7.66544,1.40262 -17.84552,4.53905 -24.34234,7.49976 -5.40993,2.46536 -5.40375,2.46371 -7.02285,1.86838 z m -1.01796,-30.189315 c -1.84222,-1.044663 -2.35257,-1.919478 -2.36483,-4.053662 -0.018,-3.044422 0.69089,-3.949604 4.65578,-5.949336 13.56861,-6.843439 32.58814,-10.863218 51.52154,-10.889073 9.40379,-0.01281 9.75246,0.03796 11.3671,1.652495 0.91615,0.916135 1.66573,2.456954 1.66573,3.424002 0,0.967048 -0.74958,2.507868 -1.66573,3.424002 -1.59994,1.59994 -2.02215,1.666269 -10.68847,1.67899 -17.33218,0.02566 -32.65981,3.099875 -45.93412,9.213494 -5.41468,2.493791 -6.47522,2.679591 -8.557,1.499088 z m -22.22201,39.667835 -0.17287,-69.045682 -4.41111,-1.58332 C 114.99048,54.634457 95.293017,49.946287 83.907686,48.174729 67.769422,45.66363 47.095397,44.364938 41.398011,45.504426 l -2.120718,0.424133 v 68.457091 68.45706 l 5.2594,0.003 c 5.931405,0.006 25.249826,1.613 32.830086,2.73463 14.822773,2.19329 34.885121,6.78276 44.025051,10.07118 2.05288,0.73859 4.26837,1.36523 4.92332,1.39249 1.12894,0.0469 1.18183,-3.53796 1.01793,-68.9961 z m -17.83597,49.12553 c -1.96709,-1.34961 -10.050656,-4.46122 -16.287775,-6.26967 -8.625641,-2.50099 -17.409409,-3.71673 -29.840582,-4.13022 -10.379758,-0.34524 -11.689889,-0.52342 -13.063681,-1.77663 -2.180453,-1.9891 -2.057287,-5.39107 0.261186,-7.21477 1.581524,-1.24403 2.72137,-1.40651 9.866929,-1.40651 13.789601,0 28.276577,2.12771 39.581723,5.81344 7.71413,2.51495 16.37078,6.69195 17.24182,8.31955 2.53498,4.73662 -3.28462,9.73514 -7.75962,6.66481 z m -1.33861,-30.4351 C 96.992502,140.84121 75.072748,136.49556 57.794946,136.754 c -6.036288,0.0902 -6.669538,-0.0256 -7.793456,-1.41247 -1.590293,-1.96393 -1.557233,-4.87084 0.07824,-6.88391 1.275324,-1.5697 1.525864,-1.601 12.38503,-1.54738 17.249154,0.0852 32.164982,2.94974 46.21127,8.87487 4.01878,1.69525 7.75788,3.72915 8.31324,4.52201 1.46882,2.09702 1.23703,4.76029 -0.56133,6.44975 -1.97206,1.85267 -4.73898,1.84658 -8.26953,-0.018 z m -0.33931,-29.7684 c -6.19693,-2.96838 -14.788732,-5.74708 -22.734184,-7.35248 -7.362064,-1.48754 -22.851354,-2.70549 -28.851938,-2.26869 -4.829136,0.35152 -7.454911,-1.40031 -7.454911,-4.97369 0,-5.208722 4.439449,-6.327742 20.35018,-5.129592 12.12105,0.91277 22.220053,2.780692 31.540273,5.833782 8.14338,2.66759 16.303,6.61978 16.90481,8.18804 0.75585,1.96973 0.45371,4.20638 -0.76234,5.6435 -1.99517,2.35788 -4.16314,2.37214 -8.99189,0.059 z m -2.0359,-30.520577 C 93.520382,80.909787 81.444346,78.413795 64.183625,77.851567 53.649716,77.508433 51.891726,77.290749 50.44132,76.149851 c -2.260171,-1.777868 -2.255811,-5.166807 0.01022,-7.294888 1.658907,-1.558466 1.776996,-1.568186 14.420954,-1.186502 17.550377,0.529808 29.875825,2.988634 43.662706,8.710334 9.28979,3.855344 11.67737,7.268034 7.79853,11.146872 -2.18797,2.187971 -3.65649,2.038211 -10.54966,-1.075904 z"
       id="path1" /></g></svg>
