<?xml version="1.0" encoding="UTF-8" standalone="no"?>
<!-- Created with Inkscape (http://www.inkscape.org/) -->

<svg
   width="1000"
   height="1000"
   viewBox="0 0 264.58333 264.58333"
   version="1.1"
   id="svg1"
   xml:space="preserve"
   inkscape:version="1.3.2 (091e20e, 2023-11-25, custom)"
   sodipodi:docname="seta.svg"
   xmlns:inkscape="http://www.inkscape.org/namespaces/inkscape"
   xmlns:sodipodi="http://sodipodi.sourceforge.net/DTD/sodipodi-0.dtd"
   xmlns="http://www.w3.org/2000/svg"
   xmlns:svg="http://www.w3.org/2000/svg"><sodipodi:namedview
     id="namedview1"
     pagecolor="#ffffff"
     bordercolor="#000000"
     borderopacity="0.25"
     inkscape:showpageshadow="2"
     inkscape:pageopacity="0.0"
     inkscape:pagecheckerboard="0"
     inkscape:deskcolor="#d1d1d1"
     inkscape:document-units="mm"
     inkscape:zoom="0.51213161"
     inkscape:cx="288.0119"
     inkscape:cy="588.71586"
     inkscape:window-width="1920"
     inkscape:window-height="1009"
     inkscape:window-x="-8"
     inkscape:window-y="-8"
     inkscape:window-maximized="1"
     inkscape:current-layer="layer1" /><defs
     id="defs1" /><g
     inkscape:label="Camada 1"
     inkscape:groupmode="layer"
     id="layer1"><path
       style="fill:#ffffff;stroke-width:1.71492;fill-opacity:1"
       d="m 208.46229,264.3898 c -3.17041,-0.95727 -5.61723,-3.29007 -6.93288,-6.60981 l -0.81226,-2.04952 -0.0128,-58.14166 c -0.008,-31.97791 -0.11712,-58.26141 -0.24375,-58.40775 -0.12669,-0.14635 -6.44217,6.88256 -14.03436,15.61978 -12.86581,14.80607 -13.93007,15.93311 -15.65779,16.58129 -2.43197,0.91238 -6.17926,0.67008 -8.20707,-0.53069 -4.42925,-2.62275 -6.53994,-8.48729 -5.12055,-14.22745 l 0.58355,-2.36002 26.42349,-30.55548 26.4235,-30.555506 25.9455,29.958356 c 28.84865,33.31052 27.76327,31.86136 27.7606,37.06474 -0.004,6.72659 -3.91887,11.40276 -9.82669,11.73597 -4.60069,0.25947 -4.42739,0.41142 -19.83433,-17.39076 -7.41804,-8.57131 -13.57453,-15.58418 -13.68108,-15.58418 -0.10663,0 -0.19387,26.2 -0.19402,58.22222 l -2.6e-4,58.22221 -0.9797,2.39222 c -1.08285,2.64413 -2.87612,4.69871 -5.08721,5.82855 -1.65573,0.84607 -4.98409,1.2486 -6.51126,0.78749 z M 50.313107,263.70762 c -1.19976,-0.44236 -2.26645,-1.28856 -3.67405,-2.91458 -3.347835,-3.86734 -3.078613,1.77275 -3.078613,-64.49547 v -57.94421 l -13.698726,15.79993 c -15.296327,17.64256 -15.228387,17.58149 -19.557324,17.58149 -5.8221242,0 -10.26894241,-5.07095 -10.2971532,-11.74238 -0.02265355,-5.35447 -0.92836851,-4.14004 27.9490422,-37.47417 L 53.733301,92.762945 79.803624,122.91633 c 18.654329,21.5759 26.290056,30.66295 26.842776,31.9448 0.46807,1.08552 0.8335,2.81116 0.92733,4.3791 0.28932,4.83489 -1.84417,9.13321 -5.63221,11.34721 -1.66659,0.97407 -2.411444,1.1682 -4.431663,1.15503 -4.406513,-0.0287 -4.310941,0.057 -19.47812,-17.46803 -7.468409,-8.62945 -13.701858,-15.60213 -13.852098,-15.49486 -0.150302,0.10726 -0.276065,26.47414 -0.279624,58.59307 l -0.0064,58.39804 -0.875556,2.06726 c -2.187708,5.16541 -7.703577,7.71377 -12.70489,5.86967 z m 79.912683,-0.0616 c -3.09888,-1.28141 -5.30358,-3.80577 -6.31365,-7.22909 -0.29865,-1.01215 -0.39928,-27.71177 -0.39928,-105.92795 0,-57.516089 -0.0797,-104.666805 -0.17716,-104.779358 -0.0975,-0.112561 -6.26186,6.819741 -13.69874,15.405109 C 94.533907,78.550173 94.490904,78.58898 90.256789,78.600267 87.287497,78.607229 85.742617,78.014003 83.56667,76.027117 80.225332,72.976084 78.92648,67.439073 80.440649,62.700855 81.174393,60.40479 82.213633,59.143876 107.26402,30.156123 121.59703,13.570255 133.46193,2.0943189e-7 133.63047,2.0943189e-7 133.799,2.0943189e-7 145.59958,13.480682 159.85401,29.957072 c 20.16451,23.307752 26.07942,30.366438 26.64831,31.801367 1.09915,2.772331 1.29219,5.390295 0.60018,8.140093 -1.83277,7.282831 -8.25463,10.72984 -14.30865,7.680326 -1.1849,-0.596868 -4.78224,-4.508271 -15.24698,-16.57816 l -13.6962,-15.796996 -0.0887,105.487038 -0.0888,105.48702 -0.77772,1.68139 c -2.41377,5.21823 -7.94042,7.74251 -12.66974,5.78688 z"
       id="path1" /></g></svg>
